<svg width="16" height="16" viewBox="0 0 16 16" fill="none" xmlns="http://www.w3.org/2000/svg">
<g clip-path="url(#clip0_1068_2711)">
<path d="M8.06842 16H2.36077C1.99779 15.9976 1.65056 15.8415 1.3954 15.5662C1.14024 15.2908 0.998025 14.9186 1.00002 14.5314V1.46857C0.998594 1.08138 1.14114 0.709386 1.39641 0.434106C1.65168 0.158826 1.99885 0.00271944 2.36184 0H12.635C12.9983 0.00302041 13.3457 0.159731 13.6008 0.435721C13.856 0.71171 13.998 1.08442 13.9957 1.472V8.71772C13.9988 8.78965 13.9883 8.86152 13.9646 8.92897C13.9409 8.99642 13.9047 9.05805 13.8581 9.11014C13.8115 9.16223 13.7554 9.20369 13.6934 9.23202C13.6313 9.26034 13.5645 9.27495 13.497 9.27495C13.4294 9.27495 13.3626 9.26034 13.3005 9.23202C13.2385 9.20369 13.1824 9.16223 13.1358 9.11014C13.0892 9.05805 13.053 8.99642 13.0293 8.92897C13.0056 8.86152 12.9951 8.78965 12.9982 8.71772V1.47429C12.9999 1.36919 12.9626 1.26764 12.8943 1.19183C12.826 1.11602 12.7324 1.07211 12.6339 1.06971H2.36291C2.31428 1.07061 2.26628 1.08173 2.22168 1.10244C2.17708 1.12316 2.13675 1.15306 2.10301 1.19043C2.06927 1.22781 2.04277 1.27192 2.02504 1.32023C2.00731 1.36855 1.9987 1.42012 1.99969 1.472V14.5349C1.99812 14.5865 2.0062 14.6379 2.02347 14.6861C2.04074 14.7343 2.06684 14.7784 2.10026 14.8157C2.13368 14.8531 2.17374 14.883 2.2181 14.9036C2.26246 14.9243 2.31023 14.9353 2.35863 14.936H8.06842C8.19671 14.9422 8.31782 15.0009 8.4066 15.0998C8.49538 15.1988 8.545 15.3305 8.54514 15.4675C8.54527 15.6044 8.49592 15.7362 8.40734 15.8354C8.31877 15.9346 8.19777 15.9935 8.06949 16H8.06842ZM11.3556 5.26857H3.64223C3.50967 5.26857 3.38253 5.2124 3.2888 5.11242C3.19506 5.01243 3.1424 4.87683 3.1424 4.73543C3.1424 4.59403 3.19506 4.45842 3.2888 4.35844C3.38253 4.25846 3.50967 4.20229 3.64223 4.20229H11.3567C11.4893 4.20229 11.6164 4.25846 11.7102 4.35844C11.8039 4.45842 11.8566 4.59403 11.8566 4.73543C11.8566 4.87683 11.8039 5.01243 11.7102 5.11242C11.6164 5.2124 11.4893 5.26857 11.3567 5.26857H11.3556ZM7.92699 8.06857H3.64223C3.50967 8.06857 3.38253 8.0124 3.2888 7.91242C3.19506 7.81243 3.1424 7.67683 3.1424 7.53543C3.1424 7.39403 3.19506 7.25842 3.2888 7.15844C3.38253 7.05846 3.50967 7.00229 3.64223 7.00229H7.92699C7.99256 7.00229 8.05748 7.01606 8.11806 7.04283C8.17864 7.06959 8.23368 7.10882 8.28004 7.15827C8.32641 7.20773 8.36319 7.26644 8.38828 7.33105C8.41337 7.39567 8.42628 7.46492 8.42628 7.53486C8.42628 7.6048 8.41337 7.67405 8.38828 7.73866C8.36319 7.80328 8.32641 7.86199 8.28004 7.91144C8.23368 7.9609 8.17864 8.00012 8.11806 8.02689C8.05748 8.05365 7.99256 8.06743 7.92699 8.06743V8.06857ZM10.9271 15.0674C9.23416 15.0674 7.85627 13.5703 7.85627 11.7349C7.85627 11.5935 7.90893 11.4579 8.00267 11.3579C8.09641 11.2579 8.22354 11.2017 8.3561 11.2017C8.48867 11.2017 8.6158 11.2579 8.70954 11.3579C8.80328 11.4579 8.85594 11.5935 8.85594 11.7349C8.85594 12.9851 9.78596 14.0023 10.9249 14.0023C11.2164 14.0023 11.4981 13.936 11.7628 13.808C11.8823 13.7567 12.0157 13.7566 12.1353 13.8076C12.2549 13.8586 12.3514 13.9568 12.4048 14.0818C12.4582 14.2068 12.4644 14.3489 12.4221 14.4787C12.3797 14.6084 12.2921 14.7157 12.1775 14.7783C11.7832 14.9691 11.3631 15.0674 10.9271 15.0674ZM13.4986 12.2674C13.3661 12.2674 13.2391 12.2113 13.1455 12.1114C13.0519 12.0116 12.9993 11.8761 12.9993 11.7349C12.9993 10.4846 12.0692 9.46743 10.9292 9.46743C10.656 9.46743 10.387 9.52457 10.1363 9.63886C10.0159 9.68612 9.88305 9.68222 9.76524 9.62798C9.64743 9.57373 9.55366 9.47328 9.50331 9.34738C9.45296 9.22149 9.44988 9.07977 9.49471 8.95152C9.53954 8.82327 9.62885 8.7183 9.74418 8.65829C10.1189 8.48854 10.522 8.40146 10.9292 8.40229C12.6221 8.40229 14 9.89943 14 11.7349C13.9992 11.8762 13.946 12.0115 13.8521 12.1112C13.7582 12.211 13.6311 12.2671 13.4986 12.2674ZM10.0699 10.4H9.21166C9.12689 10.4 9.04353 10.3768 8.96947 10.3328C8.89541 10.2888 8.8331 10.2254 8.78844 10.1486C8.74382 10.0717 8.71808 9.98408 8.71359 9.8938C8.7091 9.80352 8.72599 9.71348 8.76272 9.632L9.19131 8.69714C9.23168 8.60662 9.29529 8.53016 9.37474 8.47662C9.4542 8.42309 9.54626 8.39467 9.64024 8.39467C9.73423 8.39467 9.82629 8.42309 9.90574 8.47662C9.9852 8.53016 10.0488 8.60662 10.0892 8.69714L10.5178 9.632C10.5553 9.71319 10.5728 9.80328 10.5685 9.89371C10.5642 9.98413 10.5382 10.0719 10.4931 10.1486C10.4488 10.2257 10.3865 10.2894 10.3124 10.3334C10.2383 10.3775 10.1547 10.4004 10.0699 10.4ZM12.2053 15.2137H12.1882C12.1032 15.2112 12.0203 15.1855 11.9474 15.1391C11.8744 15.0927 11.8138 15.0271 11.7714 14.9486L11.3428 14.1577C11.3007 14.0793 11.2779 13.9909 11.2766 13.9006C11.2753 13.8102 11.2955 13.7211 11.3354 13.6413C11.3752 13.5616 11.4333 13.494 11.5043 13.4448C11.5753 13.3956 11.6569 13.3664 11.7414 13.36L12.7132 13.288C12.9039 13.2754 13.0839 13.3794 13.1803 13.5531C13.227 13.6396 13.2502 13.7383 13.2471 13.838C13.2441 13.9378 13.215 14.0346 13.1632 14.1177L12.62 14.9794C12.5741 15.0517 12.5124 15.1109 12.44 15.1518C12.3677 15.1926 12.2871 15.2139 12.2053 15.2137Z" fill="white"/>
</g>
<defs>
<clipPath id="clip0_1068_2711">
<rect width="16" height="16" fill="white"/>
</clipPath>
</defs>
</svg>
